<svg xmlns="http://www.w3.org/2000/svg" width="295" height="84.35" viewBox="0 0 295 84.35">
  <path id="sl_logo_white" data-name="sl_logo white" d="M-2371,74.5l15.9-16a11.743,11.743,0,0,0,16.4-.1,11.62,11.62,0,0,0,.1-16.3l15.9-15.9a34.192,34.192,0,0,1-.1,48.2,34.263,34.263,0,0,1-24.2,9.95A33.955,33.955,0,0,1-2371,74.5Zm268.7-8.5V30.2h5v3.2a10.538,10.538,0,0,1,8.3-3.6,12.826,12.826,0,0,1,13,12.9,12.827,12.827,0,0,1-13,12.9,10.363,10.363,0,0,1-8.3-3.6V66Zm5.1-23.3c.1,4.5,3.3,8.2,8.1,8.2a7.967,7.967,0,0,0,8.1-8.2,8.027,8.027,0,0,0-8.1-8.2A8.027,8.027,0,0,0-2097.2,42.7ZM-2248.9,66V30.2h5v3.2a10.538,10.538,0,0,1,8.3-3.6,12.826,12.826,0,0,1,13,12.9,12.827,12.827,0,0,1-13,12.9,10.364,10.364,0,0,1-8.3-3.6V66Zm5.1-23.3c.1,4.5,3.3,8.2,8.1,8.2a7.967,7.967,0,0,0,8.1-8.2,8.027,8.027,0,0,0-8.1-8.2A8.027,8.027,0,0,0-2243.8,42.7ZM-2354.9,10a33.753,33.753,0,0,1,24.1-10,33.9,33.9,0,0,1,24,9.8l-15.9,15.9a11.767,11.767,0,0,0-8.1-3.3,11.5,11.5,0,0,0-8.2,3.4,12.03,12.03,0,0,0-3.5,8.2,11.6,11.6,0,0,0,3.3,8.1L-2355.1,58A33.95,33.95,0,0,1-2354.9,10Zm222.2,32.7a12.868,12.868,0,0,1,12.9-12.9,12.953,12.953,0,0,1,13,12.9,12.953,12.953,0,0,1-13,12.9A12.932,12.932,0,0,1-2132.7,42.7Zm4.9.1a8.151,8.151,0,0,0,8.1,8.2,8.091,8.091,0,0,0,8-8.3,8.132,8.132,0,0,0-8-8.2A8.237,8.237,0,0,0-2127.8,42.8Zm-33.6-.1a12.867,12.867,0,0,1,12.9-12.9,12.953,12.953,0,0,1,13,12.9,12.89,12.89,0,0,1-13,12.9A12.932,12.932,0,0,1-2161.4,42.7Zm4.9.1a8.151,8.151,0,0,0,8.1,8.2,8.174,8.174,0,0,0,8.1-8.3,8.283,8.283,0,0,0-8.1-8.2A8.238,8.238,0,0,0-2156.5,42.8Zm-16.2,5.8V19.1h5v28c0,2.7.6,3.8,3.1,3.8h1.2l.1,4.3a11.043,11.043,0,0,1-2.8.4C-2170.2,55.6-2172.7,53.2-2172.7,48.6Zm-47.2-5.9a12.611,12.611,0,0,1,12.6-12.9,12.675,12.675,0,0,1,12.6,12.9c0,.7-.1,1.2-.1,1.7H-2215a8,8,0,0,0,8,6.7,8.346,8.346,0,0,0,6.9-3.4l3.5,2.7a12.832,12.832,0,0,1-10.4,5.2A12.742,12.742,0,0,1-2219.9,42.7Zm5-2.3h15.1a7.481,7.481,0,0,0-7.5-6.1A7.817,7.817,0,0,0-2214.9,40.4Zm-62.1,4.5V30.2h5V43.5c0,4.6,1.1,7.4,6.2,7.4s6.2-2.8,6.2-7.4V30.2h5V44.9c0,7.7-4.3,10.7-11.2,10.7S-2277,52.6-2277,44.9Zm-22.3,7.4,2.7-3.8a11.052,11.052,0,0,0,6.9,2.5c2.7,0,4.1-1.1,4.1-2.8,0-4.9-12.8-1.9-12.8-10.8,0-4.5,3.3-7.7,8.5-7.7a13.525,13.525,0,0,1,8.4,2.8l-2.7,3.7a9.718,9.718,0,0,0-5.7-1.9c-2.5,0-3.6,1.2-3.6,2.6,0,4.7,12.8,2.1,12.8,11,0,4.7-3.6,7.6-9.2,7.6A15.43,15.43,0,0,1-2299.3,52.3Zm108.6,2.6V30.2h5v3c2.4-2.9,4.8-3.4,9.6-3.4v4.8c-8.1,0-9.6,3.3-9.6,7.6V55Z" transform="translate(2371)" fill="#fff"/>
</svg>
