<svg version="1.2" xmlns="http://www.w3.org/2000/svg" viewBox="0 0 7 12" width="7" height="12">
	<title>right arrow-svg</title>
	<style>
		.s0 { fill: #e5000f } 
	</style>
	<path id="right_arrow" class="s0" d="m2 11.2l4.6-4.6q0.1-0.2 0.2-0.4 0.1-0.2 0.1-0.4 0-0.3-0.1-0.5-0.1-0.2-0.2-0.4l-4.6-4.6c-0.3-0.2-0.5-0.3-0.8-0.3-0.3 0-0.6 0.1-0.8 0.4-0.3 0.2-0.4 0.5-0.4 0.8 0 0.3 0.1 0.5 0.3 0.8l3.8 3.8-3.8 3.7c-0.2 0.3-0.3 0.5-0.3 0.8 0 0.3 0.1 0.6 0.4 0.9 0.2 0.2 0.5 0.3 0.8 0.3 0.3 0 0.5-0.1 0.8-0.3z"/>
</svg>