<svg xmlns="http://www.w3.org/2000/svg" width="195.643" height="56" viewBox="0 0 195.643 56">
  <g id="sl-logo" transform="translate(-296.99 164)">
    <path id="Union_1" data-name="Union 1" d="M130.678,7.421h3.31v2.1a6.919,6.919,0,0,1,5.478-2.414,8.559,8.559,0,1,1,0,17.117,6.888,6.888,0,0,1-5.478-2.374v9.271l-3.31.007Zm3.409,8.263a5.372,5.372,0,1,0,10.743,0,5.372,5.372,0,1,0-10.743,0ZM33.45,7.421h3.31v2.1a6.919,6.919,0,0,1,5.478-2.414,8.559,8.559,0,1,1,0,17.117,6.888,6.888,0,0,1-5.478-2.374v9.271l-3.31.007Zm3.416,8.263a5.372,5.372,0,1,0,10.743,0,5.372,5.372,0,1,0-10.743,0ZM0,22.1l1.8-2.553A7.329,7.329,0,0,0,6.38,21.235c1.757,0,2.719-.756,2.719-1.857C9.1,16.135.59,18.138.59,12.249c0-3,2.2-5.133,5.617-5.133a9.021,9.021,0,0,1,5.544,1.857L9.994,11.42a6.35,6.35,0,0,0-3.753-1.273c-1.651,0-2.374.829-2.374,1.724,0,3.1,8.469,1.413,8.469,7.3,0,3.137-2.374,5.067-6.068,5.067A10.289,10.289,0,0,1,0,22.1Zm110.484-6.406a8.612,8.612,0,1,1,8.575,8.542A8.576,8.576,0,0,1,110.484,15.691Zm3.27.033a5.34,5.34,0,1,0,5.338-5.477A5.374,5.374,0,0,0,113.754,15.724Zm-22.3-.033a8.612,8.612,0,1,1,8.575,8.542A8.576,8.576,0,0,1,91.458,15.691Zm3.276.033a5.34,5.34,0,1,0,5.339-5.477A5.375,5.375,0,0,0,94.734,15.724ZM84.05,19.617V0h3.31V18.582c0,1.758.411,2.547,2.036,2.547a7.818,7.818,0,0,0,.829-.033v2.9h-.007a7.287,7.287,0,0,1-1.824.239C85.708,24.232,84.05,22.614,84.05,19.617ZM52.636,15.691a8.378,8.378,0,1,1,16.752-.033,9.074,9.074,0,0,1-.073,1.134h-13.4a5.293,5.293,0,0,0,5.3,4.444A5.617,5.617,0,0,0,65.793,19l2.341,1.791a8.611,8.611,0,0,1-15.5-5.1Zm3.382-1.519h9.987a4.907,4.907,0,0,0-4.96-4.032A5.138,5.138,0,0,0,56.018,14.172ZM14.782,17.136V7.421h3.336v8.787c0,3.064.723,4.92,4.1,4.92,3.409,0,4.132-1.857,4.132-4.92V7.421h3.309v9.716c0,5.133-2.858,7.1-7.441,7.1S14.782,22.269,14.782,17.136ZM72.06,7.421h3.31V9.384c1.585-1.9,3.2-2.275,6.373-2.275v3.17c-5.405,0-6.373,2.2-6.373,5.027v8.469l-3.31.007Z" transform="translate(344.52 -151.28)" fill="#fff"/>
    <path id="Path_38" data-name="Path 38" d="M25.749,17.956a7.719,7.719,0,0,1,10.823-.093L47.13,7.306A22.652,22.652,0,0,0,15.1,39.343L25.656,28.779a7.719,7.719,0,0,1,.093-10.823Z" transform="translate(292.449 -164.78)" fill="#fff"/>
    <path id="Path_39" data-name="Path 39" d="M2.5,59.1A22.648,22.648,0,0,0,34.525,27.07L23.967,37.634A7.715,7.715,0,0,1,13.058,48.544Z" transform="translate(294.49 -173.635)" fill="#e5000f"/>
  </g>
</svg>
