<?xml version="1.0" encoding="UTF-8"?>
<svg id="Icon_data" data-name="Icon data" xmlns="http://www.w3.org/2000/svg" viewBox="0 0 48.33 42">
  <defs>
    <style>
      .cls-1 {
        fill: #4200b3;
        stroke-width: 0px;
      }
    </style>
  </defs>
  <path class="cls-1" d="m28.14,28.59c-2.84,2.85-5.49,5.56-8.2,8.22-2.66,2.6-7.05,1.51-8.13-2.01-.58-1.89-.13-3.57,1.24-4.97,1.68-1.72,3.39-3.41,5.1-5.1.21-.21.49-.35.79-.55-1.27-1.26-2.38-2.35-3.47-3.46-3.4-3.44-3.4-8.42,0-11.86,1.48-1.49,2.94-3.01,4.47-4.46C24.18.35,29.19-1.01,34.79.76c5.53,1.74,8.95,5.64,10.06,11.34.96,4.91-.43,9.25-3.84,12.9-1.55,1.66-3.18,3.24-4.8,4.82-2.05,2-4.98,1.98-7.05-.02-.35-.34-.64-.74-1.03-1.2Zm2.21-2.21c.44.42.8.79,1.19,1.13.75.68,1.61.7,2.34-.02,1.75-1.72,3.55-3.4,5.17-5.25,2.48-2.82,3.35-6.17,2.53-9.84-.97-4.35-3.64-7.29-7.9-8.58-4.27-1.29-8.09-.26-11.33,2.8-1.55,1.46-3.02,3-4.52,4.51-2.19,2.21-2.18,5.11.03,7.33,1.4,1.41,2.82,2.81,4.22,4.23.91.92.91,1.79.01,2.71-1.21,1.22-2.43,2.43-3.65,3.65-1.04,1.04-2.1,2.07-3.12,3.14-.67.7-.64,1.63,0,2.28.62.63,1.57.65,2.29.03.19-.16.35-.34.53-.52,4.57-4.57,9.15-9.15,13.72-13.72.68-.68,1.29-1.43,2.05-1.99.42-.31,1.15-.48,1.62-.33.44.13.86.71,1.05,1.19.25.63-.14,1.19-.62,1.66-1.85,1.82-3.68,3.65-5.62,5.58Z"/>
  <path class="cls-1" d="m8.06,41.99c-1.04,0-2.07.01-3.11,0-1.05-.02-1.77-.69-1.77-1.63,0-.95.71-1.63,1.76-1.64,2.1-.01,4.2-.01,6.3,0,1.05,0,1.77.69,1.77,1.63,0,.94-.71,1.62-1.76,1.64-1.06.02-2.13,0-3.19,0Z"/>
</svg>