<?xml version="1.0" encoding="UTF-8"?>
<svg id="Icon_data" data-name="Icon data" xmlns="http://www.w3.org/2000/svg" viewBox="0 0 48.33 42">
  <defs>
    <style>
      .cls-1 {
        fill: #4200b3;
        stroke-width: 0px;
      }
    </style>
  </defs>
  <path class="cls-1" d="m21.66,30.78c-.23.44-.44.81-.63,1.2-1.47,2.92-2.95,5.83-4.41,8.76-.39.8-.86,1.45-1.86,1.21-1.02-.24-1.09-1.08-1.09-1.94,0-4.69,0-9.38.02-14.07,0-.67-.19-.99-.84-1.23-3.85-1.45-7.68-2.96-11.53-4.44C.61,19.99,0,19.64,0,18.77c0-.88.62-1.22,1.34-1.5C16.2,11.61,31.05,5.94,45.91.26c.66-.25,1.32-.47,1.95.08.67.59.5,1.28.28,2-3.73,12.2-7.45,24.41-11.17,36.61-.56,1.85-1.39,2.11-2.96.95-3.79-2.81-7.58-5.63-11.37-8.44-.3-.22-.61-.43-.98-.69Zm12.98,6.06c3.05-10,6.04-19.82,9.03-29.63-.07-.03-.14-.06-.21-.09-6.71,7.08-13.43,14.17-20.18,21.3,3.83,2.84,7.53,5.59,11.36,8.42ZM5.37,18.78c3.05,1.18,5.87,2.24,8.67,3.37.63.26,1.07.19,1.62-.2,6.67-4.78,13.36-9.53,20.05-14.3.23-.16.45-.34.68-.51-.03-.05-.07-.11-.1-.16-10.23,3.9-20.45,7.81-30.91,11.8Zm11.15,15.3c.08.02.16.03.24.05.83-1.64,1.61-3.3,2.5-4.9.51-.92,1.11-1.83,1.83-2.59,4.52-4.82,9.08-9.6,13.62-14.4.16-.17.29-.35.52-.62-.19.06-.25.06-.29.09-5.97,4.25-11.94,8.49-17.89,12.76-.29.21-.49.72-.49,1.09-.04,2.52-.02,5.03-.02,7.55,0,.32,0,.65,0,.97Z"/>
</svg>