<svg id="Icon_status" xmlns="http://www.w3.org/2000/svg" xmlns:xlink="http://www.w3.org/1999/xlink" width="19.492" height="19.497" viewBox="0 0 19.492 19.497">
  <defs>
    <clipPath id="clip-path">
      <rect id="Rectangle_1285" data-name="Rectangle 1285" width="19.492" height="19.497" fill="#4200b3"/>
    </clipPath>
  </defs>
  <g id="Group_155" data-name="Group 155" clip-path="url(#clip-path)">
    <path id="Path_514" data-name="Path 514" d="M135.471,134.349c.68.679,1.35,1.335,2.005,2.006a.814.814,0,1,1-1.16,1.135c-.578-.569-1.149-1.146-1.723-1.719-.089-.089-.182-.173-.27-.257a4.1,4.1,0,0,1-5.606-1.126,4.062,4.062,0,1,1,6.753-.038m-.966-2.238a2.436,2.436,0,0,0-2.437-2.448,2.433,2.433,0,0,0-.019,4.867,2.412,2.412,0,0,0,2.456-2.418" transform="translate(-118.27 -118.295)" fill="#4200b3"/>
    <path id="Path_515" data-name="Path 515" d="M65.621,122.612c0,1.457,0,2.914,0,4.372a.809.809,0,0,1-.87.878.825.825,0,0,1-.746-.894c0-1.026,0-2.053,0-3.079q0-2.832,0-5.664a.815.815,0,1,1,1.62-.022c0,1.47,0,2.94,0,4.41" transform="translate(-59.128 -108.371)" fill="#4200b3"/>
    <path id="Path_516" data-name="Path 516" d="M193.633,8.617l-1.6-.471c0-.08-.016-.179-.016-.278q0-3.462,0-6.924A1.26,1.26,0,0,1,192.088.5a.792.792,0,0,1,.856-.491.807.807,0,0,1,.68.716,2.9,2.9,0,0,1,.009.3q0,3.614,0,7.229Z" transform="translate(-177.394 0)" fill="#4200b3"/>
    <path id="Path_517" data-name="Path 517" d="M0,163.66c0-.9,0-1.8,0-2.7a.827.827,0,0,1,.827-.928.814.814,0,0,1,.79.922q.006,2.738,0,5.475a.811.811,0,0,1-.8.91.822.822,0,0,1-.814-.9c0-.925,0-1.85,0-2.776" transform="translate(0 -147.848)" fill="#4200b3"/>
    <path id="Path_518" data-name="Path 518" d="M128.023,58.993c0-1.644-.009-3.287.006-4.929a.8.8,0,0,1,1.6.018c.016,1.214.012,2.429,0,3.644a.428.428,0,0,1-.172.29c-.461.328-.934.638-1.436.977" transform="translate(-118.274 -49.256)" fill="#4200b3"/>
  </g>
</svg>
