<svg width="1200px" height="400px" xmlns="http://www.w3.org/2000/svg" viewBox="-462.58000488281243 -151.09999389648436 1425.1600097656249 452.1999877929687" style="background: rgb(0, 81, 162);" preserveAspectRatio="xMidYMid"><defs><linearGradient id="editing-sticker-gradient" x1="0.4842992131271168" y1="0.7995888604263721" x2="0.5157007868728832" y2="0.20041113957362788"><stop offset="0" stop-color="#1b75be"></stop><stop offset="1" stop-color="#408ee0"></stop></linearGradient><filter id="editing-sticker" x="-100%" y="-100%" width="300%" height="300%"><feMorphology operator="erode" radius="1" in="SourceAlpha" result="alpha-erode"></feMorphology><feConvolveMatrix order="3,3" divisor="1" kernelMatrix="0 1 0 1 1 1 0 1 0" in="alpha-erode" result="alpha-round"></feConvolveMatrix><feMorphology operator="dilate" radius="3.5" in="alpha-round" result="dilate-shadow"></feMorphology><feGaussianBlur in="dilate-shadow" stdDeviation="1.5" result="shadow"></feGaussianBlur><feFlood flood-color="#fff" result="flood-sticker"></feFlood><feComposite operator="in" in="flood-sticker" in2="alpha-round" result="comp-sticker"></feComposite><feMorphology operator="dilate" radius="3" in="comp-sticker" result="morph-sticker"></feMorphology><feConvolveMatrix order="3,3" divisor="1" kernelMatrix="0 1 0 1 1 1 0 1 0" in="morph-sticker" result="sticker"></feConvolveMatrix><feMerge><feMergeNode in="shadow"></feMergeNode><feMergeNode in="sticker"></feMergeNode><feMergeNode in="SourceGraphic"></feMergeNode></feMerge></filter></defs><g filter="url(#editing-sticker)"><g transform="translate(-269.5, 147.6999969482422)"><path d="M85.20 0.60L31.60 0.60L31.60 0.60Q23 0.60 18-4.40L18-4.40L18-4.40Q13-9.40 13-18L13-18L13-121.40L13-121.40Q15.20-121.80 20-122.50L20-122.50L20-122.50Q24.80-123.20 29.20-123.20L29.20-123.20L29.20-123.20Q33.80-123.20 37.30-122.50L37.30-122.50L37.30-122.50Q40.80-121.80 43.20-120L43.20-120L43.20-120Q45.60-118.20 46.80-115L46.80-115L46.80-115Q48-111.80 48-106.60L48-106.60L48-27.60L93.80-27.60L93.80-27.60Q95.20-25.40 96.40-21.70L96.40-21.70L96.40-21.70Q97.60-18 97.60-14L97.60-14L97.60-14Q97.60-6 94.20-2.70L94.20-2.70L94.20-2.70Q90.80 0.60 85.20 0.60L85.20 0.60ZM112.20-124.20L112.20-124.20L112.20-124.20Q112.20-131.80 117.30-137L117.30-137L117.30-137Q122.40-142.20 130.80-142.20L130.80-142.20L130.80-142.20Q139.20-142.20 144.30-137L144.30-137L144.30-137Q149.40-131.80 149.40-124.20L149.40-124.20L149.40-124.20Q149.40-116.60 144.30-111.40L144.30-111.40L144.30-111.40Q139.20-106.20 130.80-106.20L130.80-106.20L130.80-106.20Q122.40-106.20 117.30-111.40L117.30-111.40L117.30-111.40Q112.20-116.60 112.20-124.20ZM147.80-81.60L147.80-0.20L147.80-0.20Q145.60 0.20 141.30 0.90L141.30 0.90L141.30 0.90Q137 1.60 132.60 1.60L132.60 1.60L132.60 1.60Q128.20 1.60 124.70 1L124.70 1L124.70 1Q121.20 0.40 118.80-1.40L118.80-1.40L118.80-1.40Q116.40-3.20 115.10-6.30L115.10-6.30L115.10-6.30Q113.80-9.40 113.80-14.40L113.80-14.40L113.80-95.80L113.80-95.80Q116.00-96.20 120.30-96.90L120.30-96.90L120.30-96.90Q124.60-97.60 129-97.60L129-97.60L129-97.60Q133.40-97.60 136.90-97L136.90-97L136.90-97Q140.40-96.40 142.80-94.60L142.80-94.60L142.80-94.60Q145.20-92.80 146.50-89.70L146.50-89.70L146.50-89.70Q147.80-86.60 147.80-81.60L147.80-81.60ZM231-14.40L231-61.60L231-61.60Q231-67.80 227.50-70.70L227.50-70.70L227.50-70.70Q224-73.60 218-73.60L218-73.60L218-73.60Q214-73.60 210.10-72.60L210.10-72.60L210.10-72.60Q206.20-71.60 203.40-69.60L203.40-69.60L203.40-0.20L203.40-0.20Q201.40 0.40 197.10 1L197.10 1L197.10 1Q192.80 1.60 188.20 1.60L188.20 1.60L188.20 1.60Q183.80 1.60 180.30 1L180.30 1L180.30 1Q176.80 0.40 174.40-1.40L174.40-1.40L174.40-1.40Q172-3.20 170.70-6.30L170.70-6.30L170.70-6.30Q169.40-9.40 169.40-14.40L169.40-14.40L169.40-74.40L169.40-74.40Q169.40-79.80 171.70-83.20L171.70-83.20L171.70-83.20Q174-86.60 178-89.40L178-89.40L178-89.40Q184.80-94.20 195.10-97.20L195.10-97.20L195.10-97.20Q205.40-100.20 218-100.20L218-100.20L218-100.20Q240.60-100.20 252.80-90.30L252.80-90.30L252.80-90.30Q265-80.40 265-62.80L265-62.80L265-0.20L265-0.20Q263 0.40 258.70 1L258.70 1L258.70 1Q254.40 1.60 249.80 1.60L249.80 1.60L249.80 1.60Q245.40 1.60 241.90 1L241.90 1L241.90 1Q238.40 0.40 236-1.40L236-1.40L236-1.40Q233.60-3.20 232.30-6.30L232.30-6.30L232.30-6.30Q231-9.40 231-14.40L231-14.40ZM286-38.60L286-95.80L286-95.80Q288-96.40 292.30-97L292.30-97L292.30-97Q296.60-97.60 301.20-97.60L301.20-97.60L301.20-97.60Q305.60-97.60 309.10-97L309.10-97L309.10-97Q312.60-96.40 315-94.60L315-94.60L315-94.60Q317.40-92.80 318.70-89.70L318.70-89.70L318.70-89.70Q320-86.60 320-81.60L320-81.60L320-38.60L320-38.60Q320-30.40 324-26.90L324-26.90L324-26.90Q328-23.40 335.60-23.40L335.60-23.40L335.60-23.40Q340.20-23.40 343.10-24.20L343.10-24.20L343.10-24.20Q346-25 347.60-25.80L347.60-25.80L347.60-95.80L347.60-95.80Q349.60-96.40 353.90-97L353.90-97L353.90-97Q358.20-97.60 362.80-97.60L362.80-97.60L362.80-97.60Q367.20-97.60 370.70-97L370.70-97L370.70-97Q374.20-96.40 376.60-94.60L376.60-94.60L376.60-94.60Q379-92.80 380.30-89.70L380.30-89.70L380.30-89.70Q381.60-86.60 381.60-81.60L381.60-81.60L381.60-20.80L381.60-20.80Q381.60-10.80 373.20-5.80L373.20-5.80L373.20-5.80Q366.20-1.40 356.50 0.90L356.50 0.90L356.50 0.90Q346.80 3.20 335.40 3.20L335.40 3.20L335.40 3.20Q324.60 3.20 315.50 0.80L315.50 0.80L315.50 0.80Q306.40-1.60 299.80-6.60L299.80-6.60L299.80-6.60Q293.20-11.60 289.60-19.50L289.60-19.50L289.60-19.50Q286-27.40 286-38.60L286-38.60ZM423.80-50L397-81.40L397-81.40Q398.60-89 403.30-93.80L403.30-93.80L403.30-93.80Q408-98.60 415-98.60L415-98.60L415-98.60Q421.60-98.60 425.20-95.40L425.20-95.40L425.20-95.40Q428.80-92.20 433.20-86.40L433.20-86.40L446-69.60L467.40-98.60L467.40-98.60Q478.40-98.60 484.80-94.70L484.80-94.70L484.80-94.70Q491.20-90.80 491.20-84.20L491.20-84.20L491.20-84.20Q491.20-81.60 490.50-79.50L490.50-79.50L490.50-79.50Q489.80-77.40 488.40-75.20L488.40-75.20L488.40-75.20Q487-73 484.80-70.20L484.80-70.20L484.80-70.20Q482.60-67.40 479.60-63.60L479.60-63.60L466.40-48.80L492.60-14.20L492.60-14.20Q491.60-6.60 486.60-2.20L486.60-2.20L486.60-2.20Q481.60 2.20 474.60 2.20L474.60 2.20L474.60 2.20Q467 2 462.50-2.20L462.50-2.20L462.50-2.20Q458-6.40 453.80-12.40L453.80-12.40L443-27.80L422.60 1.60L422.60 1.60Q421.60 1.60 420.40 1.70L420.40 1.70L420.40 1.70Q419.20 1.80 418.40 1.80L418.40 1.80L418.40 1.80Q408.20 1.80 402.90-2.40L402.90-2.40L402.90-2.40Q397.60-6.60 397.60-12.80L397.60-12.80L397.60-12.80Q397.60-17.60 399.90-21.30L399.90-21.30L399.90-21.30Q402.20-25 407.80-31.40L407.80-31.40L423.80-50ZM575.40-117.60L575.40-117.60L575.40-117.60Q578.80-119.60 585.70-121.40L585.70-121.40L585.70-121.40Q592.60-123.20 599.60-123.20L599.60-123.20L599.60-123.20Q609.60-123.20 617.30-120.30L617.30-120.30L617.30-120.30Q625-117.40 627.20-111.20L627.20-111.20L627.20-111.20Q630.80-100.80 635-87L635-87L635-87Q639.20-73.20 643.40-58.50L643.40-58.50L643.40-58.50Q647.60-43.80 651.60-29.50L651.60-29.50L651.60-29.50Q655.60-15.20 658.60-4.20L658.60-4.20L658.60-4.20Q656.20-1.40 651.40 0.30L651.40 0.30L651.40 0.30Q646.60 2 640 2L640 2L640 2Q635.20 2 631.90 1.20L631.90 1.20L631.90 1.20Q628.60 0.40 626.50-1.20L626.50-1.20L626.50-1.20Q624.40-2.80 623.10-5.40L623.10-5.40L623.10-5.40Q621.80-8 620.80-11.40L620.80-11.40L617.20-25.20L581-25.20L581-25.20Q579.40-19.20 577.80-12.80L577.80-12.80L577.80-12.80Q576.20-6.40 574.60-0.40L574.60-0.40L574.60-0.40Q571.80 0.60 568.70 1.30L568.70 1.30L568.70 1.30Q565.60 2 561.20 2L561.20 2L561.20 2Q551 2 546.10-1.50L546.10-1.50L546.10-1.50Q541.20-5 541.20-11.20L541.20-11.20L541.20-11.20Q541.20-14 542-16.80L542-16.80L542-16.80Q542.80-19.60 543.80-23.40L543.80-23.40L543.80-23.40Q545.20-28.80 547.70-36.80L547.70-36.80L547.70-36.80Q550.20-44.80 553.20-54.10L553.20-54.10L553.20-54.10Q556.20-63.40 559.60-73.20L559.60-73.20L559.60-73.20Q563-83 566-91.70L566-91.70L566-91.70Q569-100.40 571.50-107.20L571.50-107.20L571.50-107.20Q574-114 575.40-117.60ZM600.60-91.80L599.40-91.80L599.40-91.80Q596.60-83.40 593.10-73.10L593.10-73.10L593.10-73.10Q589.60-62.80 586.80-52.20L586.80-52.20L611.60-52.20L611.60-52.20Q608.80-63 605.90-73.30L605.90-73.30L605.90-73.30Q603-83.60 600.60-91.80L600.60-91.80ZM672.40-38.60L672.40-95.80L672.40-95.80Q674.40-96.40 678.70-97L678.70-97L678.70-97Q683-97.60 687.60-97.60L687.60-97.60L687.60-97.60Q692-97.60 695.50-97L695.50-97L695.50-97Q699-96.40 701.40-94.60L701.40-94.60L701.40-94.60Q703.80-92.80 705.10-89.70L705.10-89.70L705.10-89.70Q706.40-86.60 706.40-81.60L706.40-81.60L706.40-38.60L706.40-38.60Q706.40-30.40 710.40-26.90L710.40-26.90L710.40-26.90Q714.40-23.40 722-23.40L722-23.40L722-23.40Q726.60-23.40 729.50-24.20L729.50-24.20L729.50-24.20Q732.40-25 734-25.80L734-25.80L734-95.80L734-95.80Q736-96.40 740.30-97L740.30-97L740.30-97Q744.60-97.60 749.20-97.60L749.20-97.60L749.20-97.60Q753.60-97.60 757.10-97L757.10-97L757.10-97Q760.60-96.40 763-94.60L763-94.60L763-94.60Q765.40-92.80 766.70-89.70L766.70-89.70L766.70-89.70Q768-86.60 768-81.60L768-81.60L768-20.80L768-20.80Q768-10.80 759.60-5.80L759.60-5.80L759.60-5.80Q752.60-1.40 742.90 0.90L742.90 0.90L742.90 0.90Q733.20 3.20 721.80 3.20L721.80 3.20L721.80 3.20Q711 3.20 701.90 0.80L701.90 0.80L701.90 0.80Q692.80-1.60 686.20-6.60L686.20-6.60L686.20-6.60Q679.60-11.60 676-19.50L676-19.50L676-19.50Q672.40-27.40 672.40-38.60L672.40-38.60ZM784.60-48.60L784.60-48.60L784.60-48.60Q784.60-61.80 788.60-71.50L788.60-71.50L788.60-71.50Q792.60-81.20 799.70-87.60L799.70-87.60L799.70-87.60Q806.80-94 816.30-97.10L816.30-97.10L816.30-97.10Q825.80-100.20 836.80-100.20L836.80-100.20L836.80-100.20Q840.80-100.20 844.60-99.50L844.60-99.50L844.60-99.50Q848.40-98.80 850.80-97.80L850.80-97.80L850.80-130.20L850.80-130.20Q852.80-130.80 857.20-131.50L857.20-131.50L857.20-131.50Q861.60-132.20 866.20-132.20L866.20-132.20L866.20-132.20Q870.60-132.20 874.10-131.60L874.10-131.60L874.10-131.60Q877.60-131 880-129.20L880-129.20L880-129.20Q882.40-127.40 883.60-124.30L883.60-124.30L883.60-124.30Q884.80-121.20 884.80-116.20L884.80-116.20L884.80-21.40L884.80-21.40Q884.80-12 876-6.40L876-6.40L876-6.40Q870.20-2.60 861 0.30L861 0.30L861 0.30Q851.80 3.20 839.80 3.20L839.80 3.20L839.80 3.20Q826.80 3.20 816.50-0.40L816.50-0.40L816.50-0.40Q806.20-4 799.10-10.80L799.10-10.80L799.10-10.80Q792-17.60 788.30-27.10L788.30-27.10L788.30-27.10Q784.60-36.60 784.60-48.60ZM841.40-73.60L841.40-73.60L841.40-73.60Q830.60-73.60 824.80-67.40L824.80-67.40L824.80-67.40Q819-61.20 819-48.60L819-48.60L819-48.60Q819-36.20 824.40-29.90L824.40-29.90L824.40-29.90Q829.80-23.60 840-23.60L840-23.60L840-23.60Q843.60-23.60 846.50-24.70L846.50-24.70L846.50-24.70Q849.40-25.80 851-27.20L851-27.20L851-71.20L851-71.20Q847-73.60 841.40-73.60ZM905.20-124.20L905.20-124.20L905.20-124.20Q905.20-131.80 910.30-137L910.30-137L910.30-137Q915.40-142.20 923.80-142.20L923.80-142.20L923.80-142.20Q932.20-142.20 937.30-137L937.30-137L937.30-137Q942.40-131.80 942.40-124.20L942.40-124.20L942.40-124.20Q942.40-116.60 937.30-111.40L937.30-111.40L937.30-111.40Q932.20-106.20 923.80-106.20L923.80-106.20L923.80-106.20Q915.40-106.20 910.30-111.40L910.30-111.40L910.30-111.40Q905.20-116.60 905.20-124.20ZM940.80-81.60L940.80-0.20L940.80-0.20Q938.60 0.20 934.30 0.90L934.30 0.90L934.30 0.90Q930 1.60 925.60 1.60L925.60 1.60L925.60 1.60Q921.20 1.60 917.70 1L917.70 1L917.70 1Q914.20 0.40 911.80-1.40L911.80-1.40L911.80-1.40Q909.40-3.20 908.10-6.30L908.10-6.30L908.10-6.30Q906.80-9.40 906.80-14.40L906.80-14.40L906.80-95.80L906.80-95.80Q909-96.20 913.30-96.90L913.30-96.90L913.30-96.90Q917.60-97.60 922-97.60L922-97.60L922-97.60Q926.40-97.60 929.90-97L929.90-97L929.90-97Q933.40-96.40 935.80-94.60L935.80-94.60L935.80-94.60Q938.20-92.80 939.50-89.70L939.50-89.70L939.50-89.70Q940.80-86.60 940.80-81.60L940.80-81.60ZM996.40-63.60L996.40-33.40L996.40-33.40Q996.40-28.20 999.70-26L999.70-26L999.70-26Q1003-23.80 1009-23.80L1009-23.80L1009-23.80Q1012-23.80 1015.20-24.30L1015.20-24.30L1015.20-24.30Q1018.40-24.80 1020.80-25.60L1020.80-25.60L1020.80-25.60Q1022.60-23.40 1023.90-20.70L1023.90-20.70L1023.90-20.70Q1025.20-18 1025.20-14.20L1025.20-14.20L1025.20-14.20Q1025.20-6.60 1019.50-1.80L1019.50-1.80L1019.50-1.80Q1013.80 3 999.40 3L999.40 3L999.40 3Q981.80 3 972.30-5L972.30-5L972.30-5Q962.80-13 962.80-31L962.80-31L962.80-116.60L962.80-116.60Q965-117.20 969.10-117.90L969.10-117.90L969.10-117.90Q973.20-118.60 977.80-118.60L977.80-118.60L977.80-118.60Q986.60-118.60 991.50-115.50L991.50-115.50L991.50-115.50Q996.40-112.40 996.40-102.40L996.40-102.40L996.40-89.60L1022.60-89.60L1022.60-89.60Q1023.80-87.40 1024.90-84.10L1024.90-84.10L1024.90-84.10Q1026-80.80 1026-76.80L1026-76.80L1026-76.80Q1026-69.80 1022.90-66.70L1022.90-66.70L1022.90-66.70Q1019.80-63.60 1014.60-63.60L1014.60-63.60L996.40-63.60Z" fill="url(#editing-sticker-gradient)" stroke="#89bff8" stroke-width="1"></path></g></g><style>text {
  font-size: 64px;
  font-family: Arial Black;
  dominant-baseline: central;
  text-anchor: middle;
}</style></svg>
