<svg width="10" height="10" viewBox="0 0 10 10" fill="none" xmlns="http://www.w3.org/2000/svg">
<g clip-path="url(#clip0_5846_1680)">
<path d="M9.79592 1.02041H8.67347V0.204082C8.67347 0.0913673 8.5821 0 8.46939 0H7.2449C7.13218 0 7.04082 0.0913673 7.04082 0.204082V1.02041H5.81633V0.204082C5.81633 0.0913673 5.72496 0 5.61224 0H4.38775C4.27504 0 4.18367 0.0913673 4.18367 0.204082V1.02041H2.95918V0.204082C2.95918 0.0913673 2.86782 0 2.7551 0H1.53061C1.4179 0 1.32653 0.0913673 1.32653 0.204082V1.02041H0.204082C0.0913673 1.02041 0 1.11178 0 1.22449V3.16327H10V1.22449C10 1.11178 9.90863 1.02041 9.79592 1.02041ZM2.55102 1.63265H1.73469V0.408163H2.55102V1.63265ZM5.40816 1.63265H4.59184V0.408163H5.40816V1.63265ZM8.26531 1.63265H7.44898V0.408163H8.26531V1.63265Z" fill="black"/>
<path d="M0 9.79592C0 9.90863 0.0913673 10 0.204082 10H9.79592C9.90863 10 10 9.90863 10 9.79592V3.61224H0V9.79592ZM7.39796 4.36735C7.39796 4.28281 7.46649 4.21428 7.55102 4.21428H8.57143C8.65596 4.21428 8.72449 4.28281 8.72449 4.36735V5.38775C8.72449 5.47228 8.65596 5.54081 8.57143 5.54081H7.55102C7.46649 5.54081 7.39796 5.47228 7.39796 5.38775V4.36735ZM7.39796 6.20408C7.39796 6.11955 7.46649 6.05102 7.55102 6.05102H8.57143C8.65596 6.05102 8.72449 6.11955 8.72449 6.20408V7.22449C8.72449 7.30902 8.65596 7.37755 8.57143 7.37755H7.55102C7.46649 7.37755 7.39796 7.30902 7.39796 7.22449V6.20408ZM7.39796 8.04081C7.39796 7.95628 7.46649 7.88775 7.55102 7.88775H8.57143C8.65596 7.88775 8.72449 7.95628 8.72449 8.04081V9.06122C8.72449 9.14575 8.65596 9.21428 8.57143 9.21428H7.55102C7.46649 9.21428 7.39796 9.14575 7.39796 9.06122V8.04081ZM5.35714 4.36735C5.35714 4.28281 5.42567 4.21428 5.5102 4.21428H6.53061C6.61514 4.21428 6.68367 4.28281 6.68367 4.36735V5.38775C6.68367 5.47228 6.61514 5.54081 6.53061 5.54081H5.5102C5.42567 5.54081 5.35714 5.47228 5.35714 5.38775V4.36735ZM5.35714 6.20408C5.35714 6.11955 5.42567 6.05102 5.5102 6.05102H6.53061C6.61514 6.05102 6.68367 6.11955 6.68367 6.20408V7.22449C6.68367 7.30902 6.61514 7.37755 6.53061 7.37755H5.5102C5.42567 7.37755 5.35714 7.30902 5.35714 7.22449V6.20408ZM5.35714 8.04081C5.35714 7.95628 5.42567 7.88775 5.5102 7.88775H6.53061C6.61514 7.88775 6.68367 7.95628 6.68367 8.04081V9.06122C6.68367 9.14575 6.61514 9.21428 6.53061 9.21428H5.5102C5.42567 9.21428 5.35714 9.14575 5.35714 9.06122V8.04081ZM3.31633 4.36735C3.31633 4.28281 3.38486 4.21428 3.46939 4.21428H4.4898C4.57433 4.21428 4.64286 4.28281 4.64286 4.36735V5.38775C4.64286 5.47228 4.57433 5.54081 4.4898 5.54081H3.46939C3.38486 5.54081 3.31633 5.47228 3.31633 5.38775V4.36735ZM3.31633 6.20408C3.31633 6.11955 3.38486 6.05102 3.46939 6.05102H4.4898C4.57433 6.05102 4.64286 6.11955 4.64286 6.20408V7.22449C4.64286 7.30902 4.57433 7.37755 4.4898 7.37755H3.46939C3.38486 7.37755 3.31633 7.30902 3.31633 7.22449V6.20408ZM3.31633 8.04081C3.31633 7.95628 3.38486 7.88775 3.46939 7.88775H4.4898C4.57433 7.88775 4.64286 7.95628 4.64286 8.04081V9.06122C4.64286 9.14575 4.57433 9.21428 4.4898 9.21428H3.46939C3.38486 9.21428 3.31633 9.14575 3.31633 9.06122V8.04081ZM1.27551 4.36735C1.27551 4.28281 1.34404 4.21428 1.42857 4.21428H2.44898C2.53351 4.21428 2.60204 4.28281 2.60204 4.36735V5.38775C2.60204 5.47228 2.53351 5.54081 2.44898 5.54081H1.42857C1.34404 5.54081 1.27551 5.47228 1.27551 5.38775V4.36735ZM1.27551 6.20408C1.27551 6.11955 1.34404 6.05102 1.42857 6.05102H2.44898C2.53351 6.05102 2.60204 6.11955 2.60204 6.20408V7.22449C2.60204 7.30902 2.53351 7.37755 2.44898 7.37755H1.42857C1.34404 7.37755 1.27551 7.30902 1.27551 7.22449V6.20408ZM1.27551 8.04081C1.27551 7.95628 1.34404 7.88775 1.42857 7.88775H2.44898C2.53351 7.88775 2.60204 7.95628 2.60204 8.04081V9.06122C2.60204 9.14575 2.53351 9.21428 2.44898 9.21428H1.42857C1.34404 9.21428 1.27551 9.14575 1.27551 9.06122V8.04081Z" fill="black"/>
</g>
<defs>
<clipPath id="clip0_5846_1680">
<rect width="10" height="10" fill="white"/>
</clipPath>
</defs>
</svg>
