<svg width="128" height="40" fill="none" xmlns="http://www.w3.org/2000/svg"><g clip-path="url(#a)"><path d="M119.071 0H7.908c-.29 0-.571.01-.862.01-.628.02-1.256.06-1.874.18-.628.12-1.209.32-1.78.63-.562.3-1.078.7-1.518 1.18-.45.47-.825 1.02-1.106 1.62a7.06 7.06 0 0 0-.59 1.9c-.112.66-.15 1.33-.169 2 0 .31-.009.62-.009.92v23.11c0 .31.01.61.019.92.018.67.056 1.34.168 2 .113.67.29 1.3.59 1.9.282.6.657 1.14 1.106 1.61.44.48.956.88 1.518 1.18.572.31 1.153.51 1.78.63.619.12 1.256.16 1.874.18.282.02.563.03.853.03h112.175c.281 0 .58 0 .862-.01.627-.02 1.255-.06 1.874-.18a6.202 6.202 0 0 0 1.789-.63c.562-.3 1.068-.7 1.518-1.18.45-.47.815-1.02 1.106-1.61.29-.61.478-1.23.581-1.9.112-.66.15-1.33.178-2v-.92c.009-.36.009-.72.009-1.09V9.54c0-.37 0-.73-.009-1.09v-.92c-.019-.67-.057-1.34-.178-2a6.657 6.657 0 0 0-1.076-2.76 6.13 6.13 0 0 0-2.129-1.94 6.202 6.202 0 0 0-1.789-.63c-.619-.12-1.247-.16-1.874-.18-.282 0-.581-.01-.862-.01-.328-.01-.675-.01-1.012-.01Z" fill="#A6A6A6"/><path d="M7.908 39.12c-.281 0-.562 0-.843-.01-.525-.02-1.143-.05-1.752-.16a5.285 5.285 0 0 1-1.556-.55 5.1 5.1 0 0 1-1.311-1.02 5.474 5.474 0 0 1-.956-1.4 5.75 5.75 0 0 1-.506-1.66c-.113-.67-.14-1.36-.16-1.88-.009-.21-.009-.91-.009-.91V8.44s.01-.69.01-.89c.018-.52.046-1.21.159-1.87.103-.62.272-1.16.515-1.66.253-.52.572-.99.956-1.4.384-.42.824-.76 1.302-1.02a5.118 5.118 0 0 1 1.546-.54C5.94.93 6.578.9 7.065.89l.843-.01h112.165l.853.01c.478.01 1.124.04 1.743.16.562.11 1.077.28 1.564.55a5.483 5.483 0 0 1 2.258 2.42c.244.51.403 1.05.506 1.65.113.63.141 1.28.16 1.89v.89c.009.38.009.73.009 1.09v20.93c0 .36 0 .72-.009 1.08v.93c-.019.59-.056 1.24-.16 1.85a5.88 5.88 0 0 1-.506 1.67c-.252.52-.571.99-.955 1.39-.384.42-.825.76-1.312 1.02-.487.26-.984.44-1.565.55-.599.12-1.218.15-1.752.16-.272.01-.562.01-.843.01h-1.012L7.908 39.12Z" fill="#fff"/><path d="M38.85 14.75V8.78h3.73v.8h-2.8v1.89h2.56v.78h-2.56v2.5h-.93ZM43.7 8.9a.56.56 0 1 1 1.122 0 .56.56 0 0 1-1.122 0Zm.12 1.36h.88v4.49h-.88v-4.49Zm2.31 0h.86v.71h.07c.22-.5.67-.8 1.34-.8 1 0 1.56.6 1.56 1.67v2.91h-.89v-2.7c0-.74-.31-1.11-.97-1.11-.66 0-1.07.45-1.07 1.17v2.63h-.89v-4.48h-.01Zm4.98 2.24c0-1.41.73-2.32 1.87-2.32.62 0 1.14.3 1.38.79h.07V8.5h.89v6.25h-.85v-.71h-.07c-.27.49-.79.79-1.41.79-1.16-.01-1.88-.91-1.88-2.33Zm.92 0c0 .98.45 1.56 1.2 1.56s1.21-.59 1.21-1.56c0-.96-.47-1.56-1.21-1.56-.75 0-1.2.59-1.2 1.56Zm7.08-3.6a.56.56 0 1 1 1.12 0 .56.56 0 0 1-1.12 0Zm.12 1.36h.88v4.49h-.88v-4.49Zm3.52-1.13v1.15h.98v.71h-.98v2.37c0 .48.19.69.64.69.14 0 .21-.01.34-.02v.71c-.14.02-.31.05-.48.05-.99 0-1.38-.35-1.38-1.21V11h-.71v-.71h.71V9.13h.88Zm4.37 3.37c0-1.45.81-2.33 2.13-2.33 1.31 0 2.12.88 2.12 2.33 0 1.45-.81 2.33-2.12 2.33-1.32.01-2.13-.87-2.13-2.33Zm3.33 0c0-1-.44-1.58-1.21-1.58s-1.21.58-1.21 1.58.43 1.58 1.21 1.58c.77 0 1.21-.58 1.21-1.58Zm2.11-2.24h.86v.71h.07c.22-.5.67-.8 1.34-.8 1.01 0 1.56.6 1.56 1.67v2.91h-.89v-2.7c0-.74-.31-1.11-.97-1.11-.66 0-1.08.45-1.08 1.17v2.63h-.89v-4.48Z" fill="#fff"/><g clip-path="url(#b)"><path d="M22.5 23.21a.561.561 0 0 1-.561.557H10.06a.561.561 0 0 1-.561-.557V11.557c0-.306.252-.557.561-.557H21.94a.56.56 0 0 1 .561.557V23.21Z" fill="#0C9D58"/><path opacity=".2" d="m22.5 13.996-4.452-.573 4.452 1.194v-.621ZM16.215 11.608l-6.742 3.01 7.45-2.712v-.008c-.13-.28-.45-.411-.708-.29Z" fill="#004D40"/><path opacity=".2" d="M21.939 11H10.06a.561.561 0 0 0-.561.557v.125c0-.306.252-.557.561-.557H21.94a.56.56 0 0 1 .561.557v-.125A.561.561 0 0 0 21.94 11Z" fill="#fff"/><path d="M12.382 22.852c-.08.3.08.605.356.678l11.002 2.96c.276.073.567-.111.647-.41l2.592-9.673c.08-.299-.08-.604-.356-.678L15.622 12.77c-.277-.074-.568.11-.648.41l-2.592 9.672Z" fill="#EA4335"/><path opacity=".2" d="m24.5 19.86.579 3.515-.579 2.16V19.86ZM18.1 13.566l.519.14.322 2.17-.84-2.31Z" fill="#3E2723"/><path opacity=".2" d="M26.623 15.729 15.622 12.77c-.276-.074-.568.11-.648.41l-2.591 9.672c-.005.016-.006.033-.009.049l2.572-9.6c.08-.298.372-.483.648-.409l11.001 2.959c.261.07.416.347.365.63l.02-.074c.08-.299-.08-.604-.357-.678Z" fill="#fff"/><path d="M21.047 21.66c.105.292-.028.61-.296.708L9.142 26.593c-.268.098-.575-.06-.68-.352l-3.425-9.41c-.106-.29.027-.608.295-.706L16.941 11.9c.269-.098.575.06.68.351l3.426 9.41Z" fill="#FFC107"/><path opacity=".2" d="M5.08 16.95c-.105-.29.028-.609.296-.707l11.609-4.225c.266-.097.567.057.677.342l-.04-.11c-.106-.29-.413-.448-.681-.35L5.332 16.124c-.269.098-.402.416-.295.707l3.424 9.41.005.008-3.385-9.3Z" fill="#fff"/><path d="M24.5 28.437c0 .31-.253.563-.563.563H8.063a.564.564 0 0 1-.563-.563v-12c0-.309.253-.562.563-.562h15.874c.31 0 .563.253.563.563v12Z" fill="#4285F4"/><path d="M21.469 20.625h-4.75v-1.25h4.75a.25.25 0 0 1 .25.25v.75a.25.25 0 0 1-.25.25Zm0 4.75h-4.75v-1.25h4.75a.25.25 0 0 1 .25.25v.75a.25.25 0 0 1-.25.25Zm.75-2.375h-5.5v-1.25h5.5a.25.25 0 0 1 .25.25v.75a.25.25 0 0 1-.25.25Z" fill="#fff"/><path opacity=".2" d="M23.938 28.875H8.063a.564.564 0 0 1-.563-.563v.125c0 .31.253.563.563.563h15.874c.31 0 .563-.253.563-.563v-.125c0 .31-.253.563-.563.563Z" fill="#1A237E"/><path opacity=".2" d="M8.063 16h15.874c.31 0 .563.253.563.563v-.125a.564.564 0 0 0-.563-.563H8.063a.564.564 0 0 0-.563.563v.125c0-.31.253-.563.563-.563Z" fill="#fff"/><path d="M12.469 21.875v1.128h1.617c-.133.686-.737 1.184-1.617 1.184-.982 0-1.779-.83-1.779-1.812 0-.982.797-1.813 1.779-1.813.442 0 .838.153 1.15.45v.001l.857-.856a2.88 2.88 0 0 0-2.008-.782 3 3 0 0 0 0 6c1.733 0 2.873-1.218 2.873-2.931 0-.197-.018-.386-.048-.569H12.47Z" fill="#fff"/><g opacity=".2" fill="#1A237E"><path d="M12.5 23.003v.125h1.587c.012-.041.022-.083.03-.125H12.5Z"/><path d="M12.5 25.375a3 3 0 0 1-2.998-2.938L9.5 22.5a3 3 0 0 0 3 3c1.732 0 2.872-1.218 2.872-2.932l-.001-.04c-.038 1.669-1.167 2.847-2.871 2.847Zm1.15-4.363a1.63 1.63 0 0 0-1.15-.45c-.982 0-1.778.831-1.778 1.813 0 .021.002.042.003.062.033-.954.814-1.75 1.775-1.75.442 0 .838.152 1.15.45v.001l.92-.919c-.022-.02-.046-.037-.068-.057l-.85.851h-.001Z"/></g><path opacity=".2" d="M21.719 20.5v-.125a.25.25 0 0 1-.25.25h-4.75v.125h4.75a.25.25 0 0 0 .25-.25Zm-.25 4.875h-4.75v.125h4.75a.25.25 0 0 0 .25-.25v-.125a.25.25 0 0 1-.25.25Zm.75-2.375h-5.5v.125h5.5a.25.25 0 0 0 .25-.25v-.125a.25.25 0 0 1-.25.25Z" fill="#1A237E"/><path d="M26.623 15.729 22.5 14.62v-3.063A.561.561 0 0 0 21.94 11H10.061a.561.561 0 0 0-.561.557v3.05l-4.168 1.518c-.268.098-.401.416-.295.707L7.5 23.6v4.837c0 .31.253.563.563.563h15.875c.309 0 .562-.253.562-.563V25.66l2.48-9.253c.08-.299-.08-.604-.357-.678Z" fill="url(#c)"/></g><g clip-path="url(#d)"><path d="M36.49 24.43v1.59h4.112c-.124.902-.455 1.553-.93 2.013-.6.556-1.55 1.17-3.183 1.17-2.542 0-4.526-1.898-4.526-4.255 0-2.358 1.984-4.256 4.526-4.256 1.364 0 2.377.499 3.1 1.15l1.22-1.13c-1.034-.92-2.398-1.63-4.32-1.63-3.472 0-6.406 2.626-6.406 5.846s2.914 5.846 6.406 5.846c1.881 0 3.286-.575 4.402-1.629 1.137-1.054 1.488-2.55 1.488-3.738 0-.364-.02-.709-.082-.996-.021.019-5.808.019-5.808.019Z" fill="#4285F4"/><path d="M47.525 23.127c-2.252 0-4.092 1.59-4.092 3.776 0 2.165 1.84 3.775 4.092 3.775 2.253 0 4.092-1.59 4.092-3.776 0-2.204-1.839-3.775-4.092-3.775Zm0 6.056c-1.24 0-2.294-.939-2.294-2.28 0-1.361 1.075-2.281 2.294-2.281 1.22 0 2.294.939 2.294 2.28 0 1.342-1.054 2.281-2.294 2.281Z" fill="#EA4335"/><path d="M67.572 23.97h-.062c-.393-.44-1.178-.843-2.15-.843-2.025 0-3.802 1.648-3.802 3.776 0 2.127 1.777 3.775 3.803 3.775.971 0 1.736-.402 2.149-.862h.062v.517c0 1.438-.827 2.224-2.17 2.224-1.095 0-1.777-.729-2.046-1.342l-1.55.594c.455.997 1.633 2.223 3.617 2.223 2.087 0 3.864-1.15 3.864-3.929v-6.785h-1.694v.652h-.021Zm-2.067 5.213c-1.24 0-2.17-.977-2.17-2.28 0-1.342.93-2.281 2.17-2.281 1.22 0 2.17.977 2.17 2.3.021 1.303-.95 2.261-2.17 2.261Z" fill="#4285F4"/><path d="M56.64 23.127c-2.253 0-4.093 1.59-4.093 3.776 0 2.165 1.84 3.775 4.092 3.775 2.253 0 4.092-1.59 4.092-3.776 0-2.204-1.839-3.775-4.092-3.775Zm0 6.056c-1.24 0-2.295-.939-2.295-2.28 0-1.361 1.075-2.281 2.294-2.281 1.24 0 2.294.939 2.294 2.28 0 1.342-1.054 2.281-2.294 2.281Z" fill="#FBBC05"/><path d="M70.672 19.255h1.757V30.68h-1.757V19.255Z" fill="#34A853"/><path d="M77.864 29.183c-.91 0-1.55-.383-1.984-1.15l5.456-2.089-.186-.422c-.33-.843-1.385-2.415-3.493-2.415-2.087 0-3.844 1.534-3.844 3.776 0 2.128 1.716 3.776 4.03 3.776a4.142 4.142 0 0 0 3.39-1.667l-1.385-.863c-.455.652-1.075 1.054-1.984 1.054Zm-.145-4.638c.724 0 1.344.345 1.55.824l-3.678 1.418c0-1.59 1.219-2.242 2.128-2.242Z" fill="#EA4335"/><path d="M86.4 30.755v-10.35h1.735l5.436 8.05h.062l-.062-1.993v-6.057h1.426v10.35h-1.488l-5.684-8.453h-.062l.062 1.994v6.44H86.4v.019Zm14.073.25c-1.157 0-2.087-.365-2.81-1.074-.724-.71-1.075-1.61-1.075-2.703 0-1.035.351-1.916 1.054-2.664.703-.747 1.591-1.111 2.687-1.111 1.136 0 2.046.345 2.728 1.035.682.69 1.012 1.61 1.012 2.74l-.02.25h-6.035c.041.709.29 1.284.765 1.686a2.41 2.41 0 0 0 1.653.613c1.033 0 1.715-.402 2.087-1.207l1.282.498c-.248.556-.662 1.016-1.24 1.38-.558.364-1.261.556-2.088.556Zm2.067-4.64c-.041-.402-.227-.785-.599-1.15-.372-.363-.91-.555-1.654-.555a2.17 2.17 0 0 0-1.384.46c-.393.307-.662.728-.806 1.246h4.443Zm11.181 4.39h-1.468l-1.901-5.443-1.881 5.443h-1.446l-2.46-7.092h1.488l1.695 5.348h.021l1.88-5.348h1.488l1.881 5.348h.021l1.674-5.348h1.467l-2.459 7.092Zm6.241.25c-.847 0-1.55-.192-2.108-.576a3.386 3.386 0 0 1-1.219-1.437l1.281-.499c.413.882 1.095 1.323 2.067 1.323.454 0 .806-.096 1.095-.268.289-.192.434-.422.434-.729 0-.46-.351-.767-1.054-.939l-1.55-.345a3.636 3.636 0 0 1-1.385-.652c-.434-.325-.661-.766-.661-1.303 0-.632.289-1.13.889-1.533.599-.384 1.302-.595 2.128-.595.682 0 1.282.135 1.819.422.517.268.93.71 1.137 1.227l-1.24.479c-.29-.632-.868-.94-1.757-.94-.434 0-.785.078-1.075.25-.289.172-.434.383-.434.67 0 .403.331.672 1.013.825l1.509.326c.723.153 1.24.422 1.591.786.351.383.517.805.517 1.265 0 .632-.29 1.169-.848 1.59-.537.441-1.26.652-2.149.652Z" fill="#5F6368"/></g><path d="M49.83 14V7h4.655v1.23h-3.36v1.54h2.15V11h-2.15v3H49.83Zm6.51.12c-.72 0-1.288-.238-1.705-.715-.417-.477-.625-1.128-.625-1.955 0-.547.095-1.02.285-1.42a2.14 2.14 0 0 1 .805-.93c.35-.22.763-.33 1.24-.33.473 0 .883.108 1.23.325.347.217.613.525.8.925.187.4.28.875.28 1.425 0 .553-.093 1.03-.28 1.43-.183.4-.448.708-.795.925-.347.213-.758.32-1.235.32Zm0-1.195c.337 0 .598-.13.785-.39.187-.26.28-.623.28-1.09 0-.467-.095-.83-.285-1.09a.903.903 0 0 0-.78-.395.92.92 0 0 0-.79.395c-.19.263-.285.628-.285 1.095 0 .46.095.822.285 1.085.19.26.453.39.79.39ZM59.494 14V7.345l1.25-.565V14h-1.25Zm2.41 0V7.345l1.25-.565V14h-1.25Zm4.42.12c-.72 0-1.288-.238-1.705-.715-.416-.477-.625-1.128-.625-1.955 0-.547.095-1.02.285-1.42a2.14 2.14 0 0 1 .805-.93c.35-.22.764-.33 1.24-.33.474 0 .884.108 1.23.325.347.217.614.525.8.925.187.4.28.875.28 1.425 0 .553-.093 1.03-.28 1.43-.183.4-.448.708-.795.925-.346.213-.758.32-1.235.32Zm0-1.195c.337 0 .599-.13.785-.39.187-.26.28-.623.28-1.09 0-.467-.095-.83-.285-1.09a.903.903 0 0 0-.78-.395.92.92 0 0 0-.79.395c-.19.263-.285.628-.285 1.095 0 .46.095.822.285 1.085.19.26.454.39.79.39ZM70.331 14l-1.41-5.11h1.23l.62 2.555c.023.09.046.2.07.33.026.127.048.245.065.355a33.452 33.452 0 0 1 .16-.685l.684-2.555h1.09l.68 2.555c.024.093.05.205.08.335.034.13.06.248.08.355l.066-.355a6.44 6.44 0 0 1 .07-.335l.635-2.555h1.23L74.255 14H73.15l-.67-2.555a41.03 41.03 0 0 1-.184-.78c-.024.12-.054.257-.09.41l-.09.37L71.44 14h-1.11Zm9.735.12c-.57 0-1.012-.177-1.325-.53-.313-.357-.47-.86-.47-1.51V8.89h1.25v2.8c0 .43.073.743.22.94.147.197.378.295.695.295.34 0 .59-.098.75-.295.163-.2.245-.507.245-.92V8.89h1.245V14h-1.245v-.48c-.157.2-.35.35-.58.45-.227.1-.488.15-.785.15Zm5.343 0c-.4 0-.783-.085-1.15-.255a2.23 2.23 0 0 1-.865-.685l.82-.69c.17.18.367.323.59.43.223.103.437.155.64.155.253 0 .448-.042.585-.125a.405.405 0 0 0 .205-.36c0-.1-.033-.188-.1-.265-.063-.08-.177-.16-.34-.24a6.234 6.234 0 0 0-.69-.285c-.573-.21-.98-.437-1.22-.68-.24-.247-.36-.558-.36-.935 0-.42.17-.76.51-1.02.34-.263.783-.395 1.33-.395.373 0 .717.07 1.03.21.317.14.588.345.815.615l-.815.675c-.3-.303-.65-.455-1.05-.455-.203 0-.367.038-.49.115-.123.073-.185.173-.185.3 0 .123.072.233.215.33.147.097.418.21.815.34.393.123.712.263.955.42.247.157.427.338.54.545.117.207.175.445.175.715 0 .48-.175.857-.525 1.13-.347.273-.825.41-1.435.41Zm6.812 0c-.72 0-1.288-.238-1.705-.715-.417-.477-.625-1.128-.625-1.955 0-.547.095-1.02.285-1.42a2.14 2.14 0 0 1 .805-.93c.35-.22.763-.33 1.24-.33.473 0 .883.108 1.23.325.347.217.613.525.8.925.186.4.28.875.28 1.425 0 .553-.094 1.03-.28 1.43-.184.4-.449.708-.795.925-.347.213-.758.32-1.235.32Zm0-1.195c.337 0 .598-.13.785-.39.186-.26.28-.623.28-1.09 0-.467-.095-.83-.285-1.09a.903.903 0 0 0-.78-.395.92.92 0 0 0-.79.395c-.19.263-.285.628-.285 1.095 0 .46.095.822.285 1.085.19.26.453.39.79.39ZM95.227 14V8.89h1.25v.49c.164-.203.359-.355.585-.455.23-.103.492-.155.785-.155.57 0 1.01.177 1.32.53.31.35.465.855.465 1.515V14h-1.245v-2.8c0-.43-.075-.743-.225-.94-.146-.2-.376-.3-.69-.3-.34 0-.591.1-.755.3-.16.197-.24.503-.24.92V14h-1.25Z" fill="#1B1D21"/></g><defs><clipPath id="a"><path fill="#fff" d="M0 0h128v40H0z"/></clipPath><clipPath id="b"><path fill="#fff" d="M5 11h22v18H5z"/></clipPath><clipPath id="d"><path fill="#fff" d="M30 19h93v15H30z"/></clipPath><radialGradient id="c" cx="0" cy="0" r="1" gradientUnits="userSpaceOnUse" gradientTransform="matrix(21.3947 0 0 21.3949 9.958 12.458)"><stop stop-color="#fff" stop-opacity=".1"/><stop offset="1" stop-color="#fff" stop-opacity="0"/></radialGradient></defs></svg>