<svg width="8" height="8" viewBox="0 0 8 8" fill="none" xmlns="http://www.w3.org/2000/svg">
<g clip-path="url(#clip0_5846_1880)">
<path fill-rule="evenodd" clip-rule="evenodd" d="M4 0C6.20914 0 8 1.79086 8 4C8 6.20914 6.20914 8 4 8C1.79086 8 0 6.20914 0 4C0 1.79086 1.79086 0 4 0ZM4 0.421054C2.0234 0.421054 0.421054 2.0234 0.421054 4C0.421054 5.9766 2.0234 7.57895 4 7.57895C5.9766 7.57895 7.57895 5.9766 7.57895 4C7.57895 2.0234 5.9766 0.421054 4 0.421054ZM3.82469 3.0327C3.47021 3.19783 3.16873 3.4826 2.86701 3.89894C2.82398 3.95831 2.82224 3.99439 2.86645 4.0263C2.89752 4.04873 2.91558 4.04155 2.96085 3.99326C2.9669 3.98675 2.9669 3.98675 2.9731 3.98004C3.01223 3.93766 3.04375 3.9017 3.11108 3.82352C3.33354 3.56516 3.44221 3.45883 3.61109 3.36157C3.75723 3.27741 3.88567 3.40109 3.86121 3.55937C3.85435 3.6038 3.84253 3.63659 3.81208 3.707C3.79997 3.73501 3.79486 3.74719 3.78918 3.76213C3.7343 3.90642 3.68806 4.02678 3.59119 4.27817L3.58655 4.29019C3.55726 4.3662 3.55726 4.3662 3.528 4.44219C3.40112 4.77193 3.32414 4.97413 3.2447 5.18798L3.24005 5.20051C3.22584 5.23864 3.21169 5.27679 3.19759 5.31496C3.10658 5.56179 3.05452 5.72217 3.01493 5.89275C3.00875 5.91929 3.00875 5.91929 3.00248 5.94627C2.98018 6.04276 2.96824 6.10494 2.96157 6.16885C2.95003 6.27936 2.9593 6.36985 2.99403 6.4459C3.03333 6.53197 3.11777 6.59353 3.21411 6.60751C3.3746 6.63081 3.52946 6.62915 3.66209 6.59898C3.73673 6.58201 3.81058 6.55979 3.88305 6.53255C4.09285 6.45367 4.29497 6.33059 4.49074 6.16789C4.66203 6.02514 4.82411 5.85122 4.99403 5.63509C5.00884 5.61637 5.00884 5.61637 5.0236 5.59769C5.07492 5.53224 5.10007 5.48974 5.10945 5.44484C5.11966 5.3961 5.07846 5.3467 5.04553 5.36323C5.02925 5.3714 5.01222 5.3883 4.98628 5.42103C4.96772 5.44484 4.95763 5.45757 4.94753 5.469C4.90724 5.51463 4.86469 5.56133 4.81859 5.61066C4.74258 5.69197 4.66536 5.77153 4.55335 5.88478C4.49631 5.94247 4.42457 5.9929 4.34744 6.03081C4.22398 6.09147 4.11261 6.01501 4.12599 5.87816C4.13481 5.78783 4.1567 5.69443 4.18942 5.60413C4.2609 5.40677 4.31935 5.24722 4.44865 4.8956C4.50473 4.7431 4.52895 4.67723 4.55919 4.59476C4.64885 4.35038 4.72042 4.15365 4.78852 3.96383C4.87265 3.72935 4.92017 3.55456 4.94217 3.37406C4.95879 3.23793 4.92091 3.10772 4.83453 3.01821C4.73876 2.91898 4.60253 2.87326 4.43287 2.87527C4.24515 2.8775 4.02618 2.93884 3.82469 3.0327ZM5.10961 1.41428C4.77227 1.28303 4.36747 1.50851 4.29969 1.86565C4.25054 2.1245 4.34724 2.34798 4.5446 2.44159C4.93585 2.62713 5.40538 2.32983 5.4054 1.89648C5.40543 1.65542 5.30247 1.48932 5.10961 1.41428Z" fill="black"/>
</g>
<defs>
<clipPath id="clip0_5846_1880">
<rect width="8" height="8" fill="white"/>
</clipPath>
</defs>
</svg>
