<svg width="10" height="10" viewBox="0 0 10 10" fill="none" xmlns="http://www.w3.org/2000/svg">
<g clip-path="url(#clip0_1531_15108)">
<path d="M8.98828 8.98828H1.01172V1.01172H8.98633V8.98828H8.98828ZM9.38672 0.214844H0.613281C0.392578 0.214844 0.214844 0.392578 0.214844 0.613281V9.38672C0.214844 9.60742 0.392578 9.78516 0.613281 9.78516H9.38672C9.60742 9.78516 9.78516 9.60742 9.78516 9.38672V0.613281C9.78516 0.392578 9.60742 0.214844 9.38672 0.214844Z" fill="black"/>
<path d="M5 5.39844H6.6543C6.875 5.39844 7.05273 5.2207 7.05273 5C7.05273 4.7793 6.875 4.60156 6.6543 4.60156H5.39844V2.27734C5.39844 2.05664 5.2207 1.87891 5 1.87891C4.7793 1.87891 4.60156 2.05664 4.60156 2.27734V5C4.60156 5.2207 4.7793 5.39844 5 5.39844Z" fill="black"/>
</g>
<defs>
<clipPath id="clip0_1531_15108">
<rect width="10" height="10" fill="white"/>
</clipPath>
</defs>
</svg>
