<svg width="12" height="12" viewBox="0 0 12 12" fill="none" xmlns="http://www.w3.org/2000/svg">
<g clip-path="url(#clip0_5846_1931)">
<path d="M10.6407 1.63727L6.20274 0.035852C6.13652 0.0119641 6.06828 0 5.99887 0C5.92914 0 5.85993 0.012085 5.79339 0.0362146L1.3713 1.63763C1.1323 1.72432 0.9646 1.9514 0.9646 2.20567V5.99998C0.9646 6.8471 1.23764 7.69433 1.7587 8.51808C2.15811 9.14944 2.71402 9.76859 3.40234 10.3585C4.55323 11.3447 5.69518 11.9136 5.74315 11.9373C5.82759 11.9791 5.92048 12 6.01229 12C6.10272 12 6.19376 11.9797 6.27723 11.9391C6.32521 11.9157 7.46663 11.3557 8.61861 10.3734C9.30761 9.78592 9.85518 9.16676 10.2549 8.53319C10.7757 7.70767 11.0354 6.85539 11.0354 5.99998V2.20567C11.0354 1.951 10.8803 1.72364 10.6407 1.63727ZM1.9314 5.99716V2.65744C1.9314 2.53031 2.0093 2.41675 2.12882 2.37341L5.88773 1.00591C5.92125 0.993786 5.95972 0.984843 6 0.984843V6.00002H10.0972C10.0975 6.00002 10.0978 6.00546 10.0978 6.00892C10.097 7.10177 9.54653 8.18486 8.46199 9.23943C7.61503 10.063 6.65279 10.6508 6.15783 10.9281C6.11195 10.9538 6.04032 10.9659 6.00004 10.9659C6.00004 10.872 6.00004 6.05211 6.00004 5.99845L1.9314 5.99716Z" fill="black"/>
</g>
<defs>
<clipPath id="clip0_5846_1931">
<rect width="12" height="12" fill="white"/>
</clipPath>
</defs>
</svg>
