<svg width="35" height="17" viewBox="0 0 35 17" fill="none" xmlns="http://www.w3.org/2000/svg">
<g clip-path="url(#clip0_3960_193)">
<path d="M3.68106 15.4776H0.437424C0.366764 15.4776 0.306198 15.417 0.306198 15.3464V6.98831C0.306198 6.91765 0.366764 6.85709 0.437424 6.85709H3.68106C3.75172 6.85709 3.81228 6.91765 3.81228 6.98831V15.3464C3.81228 15.417 3.75508 15.4776 3.68106 15.4776Z" fill="#00A8F2"/>
<path d="M9.57612 0.686095C8.62726 -0.0104118 7.315 0.389995 7.26116 0.406819C7.1333 0.447196 7.04918 0.564963 7.04918 0.696189V3.58316C7.04918 4.5623 6.58484 5.39004 5.66626 6.04616C4.9563 6.55424 4.22951 6.76286 4.22278 6.76622C4.21605 6.76622 4.21269 6.76959 4.20596 6.77295L4.03435 6.83015C3.93341 6.66528 3.75508 6.55424 3.54646 6.55424H0.568645C0.255722 6.55424 0 6.80997 0 7.12289V15.2151C0 15.5281 0.255722 15.7838 0.568645 15.7838H3.54983C3.81901 15.7838 4.04445 15.5954 4.10165 15.3464C4.50206 15.7737 5.0707 16.0429 5.70328 16.0429H12.7626C14.2632 16.0429 15.2222 15.2589 15.3904 13.8894L16.2922 8.1626C16.4234 7.33151 16.0836 6.49031 15.4241 6.01925C15.0506 5.75007 14.6098 5.60875 14.1488 5.60875H10.4779V2.93039C10.4779 1.88059 10.175 1.12688 9.57612 0.686095ZM3.50608 15.1714H0.609022V7.16327H3.50608V15.1714ZM14.1488 6.21777C14.4819 6.21777 14.7982 6.31871 15.0674 6.51387C15.5385 6.85371 15.7841 7.46273 15.6865 8.06839L14.7881 13.7986C14.7881 13.8019 14.7881 13.8053 14.7881 13.8087C14.6233 15.1479 13.597 15.4305 12.7626 15.4305H5.70328C4.82844 15.4305 4.11847 14.7205 4.11847 13.8457V7.44591L4.39775 7.35169C4.49533 7.32478 5.24567 7.09597 6.0061 6.55424C7.08619 5.78708 7.6582 4.76082 7.6582 3.58652V0.941817C8.00814 0.874521 8.71138 0.807226 9.21945 1.18072C9.65014 1.497 9.86885 2.08584 9.86885 2.93039V5.91494C9.86885 6.08318 10.0068 6.22113 10.175 6.22113H14.1488V6.21777Z" fill="#333333"/>
</g>
<g clip-path="url(#clip1_3960_193)">
<path d="M30.959 0.842697L34.2026 0.842697C34.2733 0.842697 34.3338 0.903263 34.3338 0.973924L34.3338 9.332C34.3338 9.40266 34.2733 9.46323 34.2026 9.46323L30.959 9.46323C30.8883 9.46323 30.8277 9.40266 30.8277 9.332L30.8277 0.973923C30.8277 0.903263 30.8849 0.842697 30.959 0.842697Z" fill="#C45F67"/>
<path d="M25.0639 15.6342C26.0128 16.3307 27.325 15.9303 27.3789 15.9135C27.5067 15.8731 27.5908 15.7553 27.5908 15.6241L27.5908 12.7372C27.5908 11.758 28.0552 10.9303 28.9738 10.2741C29.6837 9.76607 30.4105 9.55745 30.4172 9.55409C30.424 9.55409 30.4273 9.55072 30.4341 9.54736L30.6057 9.49016C30.7066 9.65503 30.8849 9.76607 31.0936 9.76607L34.0714 9.76607C34.3843 9.76607 34.64 9.51035 34.64 9.19742L34.64 1.10516C34.64 0.792239 34.3843 0.536517 34.0714 0.536517L31.0902 0.536517C30.821 0.536517 30.5956 0.724944 30.5384 0.973937C30.138 0.546611 29.5693 0.277431 28.9367 0.277431L21.8775 0.27743C20.3768 0.27743 19.4178 1.06142 19.2496 2.43088L18.3478 8.15771C18.2166 8.98881 18.5564 9.83 19.2159 10.3011C19.5894 10.5702 20.0302 10.7116 20.4912 10.7116L24.1621 10.7116L24.1621 13.3899C24.1621 14.4397 24.465 15.1934 25.0639 15.6342ZM31.1339 1.1489L34.031 1.1489L34.031 9.15705L31.1339 9.15705L31.1339 1.1489ZM20.4912 10.1025C20.1581 10.1025 19.8418 10.0016 19.5726 9.80644C19.1015 9.4666 18.8559 8.85758 18.9535 8.25192L19.8519 2.52173C19.8519 2.51836 19.8519 2.515 19.8519 2.51163C20.0167 1.17246 21.043 0.889816 21.8775 0.889816L28.9367 0.889817C29.8116 0.889817 30.5215 1.59978 30.5215 2.47462L30.5215 8.87441L30.2423 8.96862C30.1447 8.99554 29.3943 9.22434 28.6339 9.76607C27.5538 10.5332 26.9818 11.5595 26.9818 12.7338L26.9818 15.3785C26.6319 15.4458 25.9286 15.5131 25.4206 15.1396C24.9899 14.8233 24.7712 14.2345 24.7712 13.3899L24.7712 10.4054C24.7712 10.2371 24.6332 10.0992 24.465 10.0992L20.4912 10.0992L20.4912 10.1025Z" fill="#333333"/>
</g>
<defs>
<clipPath id="clip0_3960_193">
<rect width="16.32" height="16.32" fill="white"/>
</clipPath>
<clipPath id="clip1_3960_193">
<rect width="16.32" height="16.32" fill="white" transform="translate(34.64 16.3203) rotate(-180)"/>
</clipPath>
</defs>
</svg>
